<?xml version="1.0" encoding="UTF-8"?>
<svg xmlns="http://www.w3.org/2000/svg" width="1920" height="1080" viewBox="0 0 1920 1080">
  <defs>
    <style>
      .cls-1 {
        stroke: red;
      }

      .cls-1, .cls-2 {
        fill: none;
        stroke-miterlimit: 10;
      }

      .cls-3 {
        fill: #6ca79f;
      }

      .cls-2 {
        stroke: #000;
      }

      .cls-4 {
        fill: red;
      }
    </style>
  </defs>
  <g id="Tangible">
    <polygon class="cls-2" points="1239.56 749.54 1238.68 751.95 1235.54 754.04 1214.94 753.89 1198.77 755.49 1198.77 756.74 1186.24 756.58 1186.27 755.31 1188.96 755.36 1188.96 753.41 1106.29 757.94 1090.04 757.94 1079.03 754.71 1039.09 731.76 1029.96 725.43 1025.13 718.74 1017.8 700.68 1021.97 699.82 1039.31 710.17 1041.04 709.81 1057.16 719.17 1060.75 713.26 1053.13 708.73 1052.5 709.18 1049.59 707.41 1049.59 706.72 1034.09 697.63 1033.46 698.47 1022.3 691.63 1022.96 689.75 1020.2 687.4 1019.57 688.13 1016.87 685.76 1017.5 685.07 1007.33 667.65 1006.05 662.4 1005.25 662.43 1002.9 648.43 1004.98 648.33 1006.2 655.57 1010.26 655.15 1009.94 651.25 1020.17 647.98 1053.95 658.74 1056.27 651.62 1014.74 637.86 1014.37 638.91 1011.15 637.54 1012.05 636.81 1003.99 627.53 1002.27 612.25 1019.85 624.35 1086.03 646.91 1094.99 619.38 1104.16 626.67 1121.08 636.06 1122.81 636.06 1137.84 644.31 1140.84 643.52 1141.35 644.71 1156.73 649.65 1159.1 648.98 1172.91 656.83 1182.59 664.9 1181.7 666.01 1173.38 659.15 1172.98 659.52 1172.12 658.8 1157.65 663.3 1159.67 669.77 1167.67 667.38 1168.16 669.1 1169.45 668.61 1171.08 673.39 1152.83 679.09 1148.65 666.04 1140.95 668.47 1136.91 655.34 1130.34 657.2 1134.34 670.44 1137.19 671.09 1140.87 682.65 1136.56 684.03 1133.39 673.81 1131.97 672.88 1126.45 674.48 1125.54 675.82 1128.4 684.8 1127.26 685.22 1125.87 681 1120.14 682.81 1119.91 681.79 1118.75 682.11 1111.75 659.5 1112.94 659.09 1112.76 657.97 1113.42 651.96 1113.46 647.31 1117.52 646.1 1117.1 644.41 1112.89 645.67 1107.72 648.04 1099.26 650.52 1110.9 687.9 1105.43 689.61 1103.66 689.55 1103.47 688.8 1083.58 694.75 1086.05 702.89 1099.91 698.73 1100.29 699.83 1086.35 703.96 1088.95 712.1 1091.65 711.28 1094.2 712.12 1095.47 711.72 1096.01 709.78 1107.51 706.21 1108.39 707.01 1104.64 722.41 1104.08 722.8 1103.34 725.6 1103.64 726.4 1100.52 738.13 1106.99 739.9 1108.36 739.04 1115.82 711.37 1114.29 710.92 1116.3 702.69 1117.8 702.98 1118.82 698.93 1144.2 691.04 1145.28 694.41 1160.63 689.75 1161.39 685.89 1186.62 677.92 1187.19 678.57 1182.59 702.12 1146.38 713.27 1149.11 722.19 1157.72 719.75 1158.23 718.9 1179.11 712.58 1187.57 716.84 1194.08 741.5 1195.73 741.14 1196.2 742.62 1202.71 741.26 1192.89 704.77 1198.57 676.39 1199.13 669.48 1200.11 669.39 1200.58 674.45 1204.38 674.48 1205.87 673.86 1202.86 668.99 1203.74 668.5 1213.72 684.47 1220.75 682.6 1223.58 691.77 1225.99 704.67 1229.87 714.95 1237.75 742.58 1235.38 746.48 1238.36 746.08 1239.56 749.54"/>
    <polygon class="cls-2" points="1363.73 717.07 1291.9 722.39 1248.75 735.94 1245.79 733.65 1244.87 730.22 1246.86 729.92 1246.53 728.51 1244.5 728.86 1243.57 726.09 1243.5 722.5 1241.64 719.68 1240.86 717.27 1237.67 710.26 1235.27 696.75 1235.27 691.72 1233.62 685.18 1230.56 679.39 1227.32 666.83 1227.69 664.8 1229.25 663.77 1229.94 664.33 1230.62 662.48 1248.4 661.43 1248.58 661.89 1252.51 661.01 1261 659.77 1272.26 667.19 1272.58 668.52 1274.12 668.48 1274.14 669.64 1272.85 669.67 1274.07 676.97 1274.37 680.36 1269.32 687.22 1270.4 687.97 1263.29 697.86 1267.19 701.57 1276.21 689.18 1278.2 689.57 1280.33 703.4 1281.19 703.29 1281.96 708.48 1281.1 708.59 1282.02 713.48 1283.46 713.37 1282.89 710.11 1287.97 709.41 1286.98 703.47 1285.95 703.57 1285.39 700.14 1286.54 700.05 1285.99 697.06 1284.69 697.15 1283.92 691.84 1285.09 691.87 1282.53 675.79 1281.19 675.91 1280.81 672.78 1281.96 672.62 1280.29 662.96 1272.71 657.85 1272.69 656.97 1281.69 653.52 1281.41 652.81 1282.58 652.37 1282.85 653.01 1285.7 651.51 1297.57 646.69 1307.08 644.22 1316.78 642.86 1324.82 642.83 1326.27 646.34 1319.71 669.42 1299.38 679.07 1300.55 685.25 1320.19 676.03 1320.73 676.95 1336.11 681.19 1336.59 680.02 1337.64 680.34 1337.18 681.49 1353.52 686.3 1354.39 691.43 1356.71 691.09 1354.52 679.63 1331.64 672.84 1329.25 666.28 1331.68 657.87 1330.69 657.62 1332.1 653.01 1333.07 653.29 1334.47 647.81 1337.59 643.96 1342.93 649.41 1345.42 647.65 1353.42 659.57 1363.73 717.07"/>
    <polygon class="cls-2" points="1531.09 720.61 1531.63 743.28 1488.85 747.19 1473.9 742.63 1482.72 716.96 1462.99 674.33 1442.18 666.56 1453.84 660.7 1452.86 659.27 1448.92 660.8 1441.68 649.24 1440.15 648.59 1439.12 638.29 1452.77 635.1 1453.94 646.18 1460.02 644.68 1461.18 642.85 1462.09 642.83 1462.6 643.95 1465.49 643.05 1464.45 633.08 1475.06 632.46 1479.84 633.35 1481.04 635.36 1476.14 636.15 1476.45 639.16 1483.08 637.25 1484.58 639.94 1459.34 651.31 1462.18 656.64 1473.55 651.02 1485.49 647.19 1490.1 653.13 1493.41 659.75 1469.37 671.8 1468.51 672.99 1471.24 677.93 1495.94 665.8 1499.11 672.61 1480.31 682.11 1476.95 681.01 1473.78 682.68 1477.67 690.51 1497.91 680.09 1499.64 680.34 1500.51 681.05 1500.79 682.4 1499.98 683.45 1479.68 693.82 1482.46 699.62 1490.77 695.88 1494.22 702.2 1486.02 706.72 1487.03 707.87 1488.04 707.53 1493.26 710.22 1493.6 711.13 1517.29 715.54 1518.16 712.14 1528.19 714.3 1527.71 717.03 1530.06 716.07 1532.26 709.69 1527.66 708.4 1527.4 709.24 1522.36 707.63 1518.59 697.91 1534.09 702.62 1535.15 701.89 1539.03 690.89 1516.12 684.24 1516.49 683.06 1535.47 688.67 1537.93 682.32 1509.52 674.07 1508.17 670.47 1514.97 672.62 1515.82 669.96 1513.77 669.22 1514.77 666.86 1543.58 675.62 1545.08 671.82 1517.07 663.42 1518.77 658.06 1535.88 663.17 1536.22 661.99 1547.31 665.53 1548.56 662.03 1500.81 647.91 1495.95 635.74 1507.91 638.91 1513.2 640.67 1512.5 641.44 1506.44 639.82 1505.92 641.67 1517.54 645.01 1517.56 646.42 1518.98 646.46 1519.49 642.79 1540.35 645.2 1539.86 650.94 1542.97 651.95 1543.3 644.54 1548.85 644.54 1548.74 651.84 1550.94 651.89 1551.51 660.15 1531.09 720.61"/>
    <g>
      <polygon class="cls-2" points="1621.69 561.11 1620.53 562.55 1623.56 564.91 1603.52 571.56 1601.19 571.56 1601.05 583.02 1602.46 592.9 1603.98 594.84 1595.57 608.12 1593.63 609.46 1591.79 603.74 1589.69 604.76 1591.69 612.25 1583.29 618.49 1582.63 617.87 1581.18 618.62 1581.71 619.77 1568.11 626.54 1565.16 626.48 1554.81 600.46 1549.32 598.82 1543.49 601.02 1542.43 597.57 1547.98 595.04 1556.25 590.55 1556.97 586.1 1554.48 574.58 1556.12 563.33 1554.09 545.52 1589.35 536.8 1607.99 540.54 1635.53 546.07 1637.6 551.27 1639.08 554.96 1625.3 562.39 1621.69 561.11"/>
      <polygon class="cls-2" points="1640.07 556.46 1641.48 559.49 1641.33 562.98 1629.96 566.48 1623.44 571.23 1607.85 587.82 1604.93 592.21 1603.57 589.75 1603.08 586.69 1621 568.84 1622.28 568.66 1627.11 563.48 1640.07 556.46"/>
      <polygon class="cls-2" points="1618.46 569.79 1609.52 578.76 1604.18 583.02 1604.18 581.35 1608.8 577.5 1608.14 576.26 1603.85 578.58 1603.85 577.04 1607.75 574.9 1607.19 573.67 1603.85 574.67 1603.85 573.16 1617.64 568.87 1618.46 569.79"/>
    </g>
    <polygon class="cls-2" points="504.47 501.28 503.38 533.24 469.72 547.82 453.31 542.59 448.94 524.17 474.57 489.61 504.47 501.28"/>
    <g>
      <path class="cls-2" d="M682.78,476.24l-33.53,3.95-.62,4.77-3.36.45-.26-5.04-1.03-2.84,12.52-4.07-.97-2.12-70.25,23.72,2.47,6.55-24.68,8.23-6.37-4.61-16.9-47.07,2.74-.62-5.13-14.51,6.28-1.87,5.22,14.78,1.6-.53,12.21,33.27,70.09-24.51,17.69-23.01-1.15-4.15-29.9,6.02-4.34-.27-27.08,5.49-5.93,3.09-12.39,2.13-4.96-1.77-2.56.8-1.77-8.85,91.5-17.52-9.83-31.42-3.01-1.33-89.4,9.65v-1.24h-2.63l-.44-2.56,1.41-1.68-4.6-9.2-4.61,1.54-4.75-13.55,3.27-4.45,39.15,15.52,17.2-1.98.2-11.67-98.68-38.46-10.98,1.78-5.73,5.63-2.08,8.61,2.77,26,11.37,6.92,9.59-2.18,4.94,1.29-.19,2.38-3.86,1.77,4.75,14.04-5.04,6.43-13.65-10.48-22.84,29.47-1.77-.6-36.59,46.28-2.18-2.08,2.47-6.93-2.57-3.86,14.44-20.36-1.58-.89,24.12-35.59-4.35-36.39-8.01-7.31-8.31-1.49-.29,2.87,12.56,7.61.5,7.32-46.28,66.05-9.3-22.05-5.73-29.16,7.02-28.28,8.21-12.26,4.55,2.57,15.13-.89,4.15.99-.79-3.56-13.65-5.73-5.24-.2,16.02-24.22,12.66-13.64,9.78-4.65,12.07,3.06-.4,2.08,1.88.3,3.46-2.28,50.92,20.07.49-1.38,61.61,24.52-.5,1.88,15.92,6.03,4.35-.29,21.26,8.51,19.48-10.29,4.05,1.29,11.57,23.24,2.16-2.4-17.78-45.26-80.56-31.25,2.64-6.47,8.41,2.95.57-1.55-16.36-6.35-20.88,2.98-7.98,5.19-41.28-13.86-51.86,16.26-36.43,45.23-19.68,43.77,42.01,122.49,19.97,51.11,68.14-14.1,120.44-47.58,35.84-2.06,25.26,5.87,18.98,30.47,13.09-48.26-37.31-8.19ZM503.38,533.24l-33.66,14.58-16.41-5.23-4.37-18.42,25.63-34.56,29.9,11.67-1.09,31.96Z"/>
      <polygon class="cls-2" points="657.29 341.83 662.96 348.25 664.9 360.95 662.96 360.95 655.94 342.58 657.29 341.83"/>
    </g>
    <polygon class="cls-2" points="504.47 501.28 503.38 533.24 469.72 547.82 453.31 542.59 448.94 524.17 474.57 489.61 504.47 501.28"/>
    <polygon class="cls-2" points="1001.59 648.5 1003.99 662.63 1002.79 662.94 1003.2 667.3 1002.24 667.3 995.96 648.24 992.34 629.62 987.5 628.55 982.49 629.73 982.83 633.17 975.86 626.24 908.68 571.79 905.61 572.63 888.14 556.44 873.75 537.28 876.92 536.22 868.77 519.07 857.23 509.33 842.41 503.4 823.25 492.39 821.98 494.3 796.47 483.08 766.19 470.48 757.41 465.61 752.43 457.35 751.59 446.98 751.59 430.15 754.02 428.14 753.7 401.46 722.58 386.32 716.76 398.6 739.31 410.14 742.38 415.22 742.06 457.78 745.34 462.75 745.23 468.89 749.47 473.13 772.12 477.78 804.2 491.54 804.2 493.03 800.7 493.66 794.46 495.36 668.8 466.88 664.04 458.83 668.06 443.38 669.23 442.96 677.8 452.48 680.87 452.48 684.89 456.72 691.99 450.79 687.22 445.28 694.63 438.83 673.67 416.39 677.77 400.98 681.11 395.1 683.47 394.86 685.1 389.26 683.15 388.93 684.96 380.87 694.97 385.69 697.56 379.9 686.35 374.71 690.56 361.46 696.73 356.4 701.22 354.55 702.06 355.85 718.27 363.26 719.85 367.39 756.23 384.55 751.19 395.07 752.41 395.65 755.38 390.66 758.14 392.84 760.85 406.01 764.73 411.49 763.08 425.67 760.59 430.77 760.59 440.38 768.88 440.38 768.88 460.27 777.73 460.27 777.73 431.01 780.81 428.58 780.81 417.96 783.5 415.6 783.5 403.99 784.39 403.64 790.49 406.84 792.31 410.44 792.31 428.43 804.64 428.43 820.48 441.25 820.48 430.5 822.56 430.1 825.8 432.88 825.93 433.88 830.5 436.86 838.51 443.31 842.8 458.84 842.8 476.36 853.55 476.36 854.65 475.18 858.43 475.18 858.43 478.43 860.49 480.44 865.08 480.44 865.08 482.69 872.77 482.69 872.77 473.57 874.14 473.04 905.14 499.18 905.14 499.95 901.37 499.95 901.37 503.76 910.92 503.76 914.97 507.3 914.97 509.64 930.51 522.72 930.51 533.46 920.97 545.08 924.13 547.54 930.19 540.66 930.19 553.36 940.99 553.36 940.99 568.33 943.08 570.16 953.88 570.16 955.59 571.61 975.11 571.61 980.04 568.01 986.48 577.55 990.46 591.83 996.02 627.9 997.47 637.51 999.43 643.07 1000.46 646.95 1000.53 648.57 1001.59 648.5"/>
    <g>
      <polygon class="cls-2" points="1648.89 574.34 1624.45 595.82 1616.08 600.6 1613.48 598.58 1616.29 593.59 1634.92 575.41 1647.87 573.02 1648.89 574.34"/>
      <polygon class="cls-2" points="1699.7 687.55 1694 689.61 1691.18 702.73 1676.75 704 1671.7 704.81 1663.88 714.32 1654.2 722.38 1636.23 702.02 1621.92 693.54 1623.56 680.46 1626.78 677.1 1626.6 658.21 1629.87 647.68 1629.6 643.87 1630.66 640.41 1631.97 632.26 1631.18 631.34 1586.07 646.3 1572.03 640.44 1572.07 638.7 1575.32 637.33 1583.39 640.51 1584.15 638.59 1579.73 636.16 1580.24 635 1591.72 628.19 1596.13 628.08 1596.71 628.84 1597.84 628.63 1599.69 626.24 1614.2 627.92 1633.06 621.86 1633.65 618.5 1624.47 612.07 1623.72 612.99 1621.76 611.75 1606.84 622.95 1605.95 621.76 1603.59 623.43 1600.72 619.81 1617.04 606.9 1624.3 602.17 1625.12 603.03 1626.45 602.04 1638.16 610.76 1639.6 608.75 1627.34 600.16 1631.49 596.66 1653.53 612.48 1654.66 610.87 1653.32 609.36 1632.79 594.95 1651.99 578.18 1656.27 578.04 1656.47 583.38 1657.84 590.98 1659.86 596.21 1661.57 595.63 1659.45 590.5 1658.67 583.18 1659.31 582.73 1659.18 579.14 1661.81 580.37 1669.55 588.28 1667.87 589.92 1668.53 590.61 1670.54 589.51 1673.48 595.26 1674.99 603.48 1674.51 609.98 1673.25 610.32 1674.82 614.08 1674.03 615.66 1664.17 600.95 1662.53 601.86 1674.1 620.04 1675.06 623.16 1674 624.6 1674.31 626.78 1673.9 628.05 1674.55 629.13 1671.49 630.84 1668.32 634.77 1678.17 644.43 1690.41 669 1699.7 687.55"/>
    </g>
    <polygon class="cls-2" points="1739.66 616.14 1733.36 617.18 1732.8 620.27 1726.83 621.36 1724.74 621.89 1725.12 623.18 1726.89 622.74 1727.44 623.71 1722.79 625.48 1721.88 623.89 1719.9 623.74 1716.96 626.01 1709.57 630.55 1708.69 631.75 1706.98 631.43 1705.74 632.4 1704.68 631.69 1701.24 630.78 1700.33 631.22 1698.77 630.19 1696.61 626.95 1696.97 625.71 1694.4 622.36 1694.7 619.82 1692.85 617 1694.7 615.47 1693.58 613.65 1694.05 611.79 1692.99 611.22 1692.14 612.46 1687.72 613.41 1685.54 595.32 1688.78 588.32 1687.66 587.73 1685.54 591.65 1684.57 591.15 1682.45 586.52 1675.77 576.66 1668.84 570.39 1651.51 562.97 1650.83 563.53 1646.61 562.53 1643.26 562.79 1642.64 559.28 1643.4 556.07 1644.56 555.56 1673.01 566.13 1673.11 567.18 1675.27 567.88 1675.13 569.72 1676.5 570.19 1677.54 566.47 1637.6 551.27 1635.53 546.07 1607.99 540.54 1608.23 536.73 1606.05 532.82 1606.94 527.94 1609.79 523.87 1609.84 519.28 1614.54 509.54 1617.98 507.35 1619.61 502.54 1614.5 500.49 1613.18 497.66 1612.69 493.51 1609.7 489.53 1610.25 485.01 1612.26 481.39 1612.98 478.42 1609.78 473.37 1631.63 468.66 1667.15 462.46 1714.97 451.93 1733.56 522.87 1733.17 537.24 1726.78 553.47 1722.94 568.23 1724.9 581.71 1739.66 616.14"/>
    <polygon class="cls-2" points="1820.34 640.77 1802.55 721.28 1786.02 720.77 1743.6 745.07 1740.01 749.67 1715.12 756.1 1700.76 752.34 1691.4 754.67 1676.05 754.67 1674.49 744.09 1665.96 730.55 1654.2 722.38 1663.88 714.32 1671.7 704.81 1676.75 704 1691.18 702.73 1694 689.61 1699.7 687.55 1690.41 669 1678.17 644.43 1668.32 634.77 1671.49 630.84 1674.55 629.13 1676.7 631.95 1677.3 631.61 1679.2 633.98 1678.6 634.55 1684.23 639.41 1693.85 643.8 1704.35 647.75 1713.08 647.98 1727.05 645.42 1731.47 644.21 1732.78 644.49 1734.64 647.81 1734.64 650.4 1736.62 650.19 1736.93 644.46 1735.82 643.25 1736.03 641.89 1742.77 639.03 1748.65 635.64 1749.55 636.33 1750.55 635.33 1749.89 634.26 1751.79 631.81 1752.76 629.98 1753.9 629.24 1753.45 627.13 1755.45 626.69 1755.87 628.66 1758.84 628.11 1758.4 625.97 1771.04 624.2 1771.77 628 1771.94 631.77 1777.37 632.6 1777.23 625.27 1772.81 624.89 1772.91 623.75 1778.06 624.2 1786.95 629.14 1792.06 631.11 1802.95 632.88 1812.9 631.73 1812.9 632.94 1806.82 633.75 1806.61 635.67 1813.08 635.24 1813.35 637.21 1819.59 637.35 1820.34 640.77"/>
    <polygon class="cls-2" points="1749.54 632.11 1749.06 629.1 1746.26 628.5 1724.02 637.14 1711.09 642.32 1712.17 646.05 1716.05 645.49 1721.45 644.45 1729.16 642.73 1738.85 638.67 1745.63 635.43 1749.54 632.11"/>
    <polyline class="cls-2" points="1440.33 616.17 1434.54 623.45 1433.11 625.46 1429.7 626.59 1428.42 614.48 1426.23 614.73 1427.51 627.37 1414.69 631.4 1413.83 632.45 1408.89 633.9 1408.17 633.09 1406.92 633.25 1406.62 631.76 1408.81 631.15 1405.77 620.97 1404.52 620.14 1404.2 622.5 1405.05 631.46 1405.61 635.22 1401.36 636.67 1400.07 624.23 1401.06 623.97 1401.08 621.95 1401.26 620.78 1400.74 619.31 1400.62 617.88 1398.95 613.09 1394.58 613.27 1392.48 614.58 1376.23 608.18 1372.85 615.59 1392.78 624 1393.85 633.94 1392.63 638.39 1386.12 638.39 1385.63 639.28 1383.96 639.28 1383.28 638.35 1375.89 637.66 1364.28 634.04 1364.24 632.67 1365.51 631.88 1366.36 631.96 1367.47 631.25 1365.53 628.84 1367.23 625.54 1363.49 623.74 1355.43 598.36 1350.14 600.04 1355.21 615.31 1354.84 616.37 1352.95 616.97 1352.58 617.93 1354.1 622.04 1351.27 621.18 1350.37 623.62 1350.89 624.55 1350.54 626.1 1357.24 628.02 1357.75 629.3 1357.1 629.99 1357.12 631.12 1358.85 632.61 1358.12 633.13 1339.36 627.86 1340 625.02 1340.56 624.83 1340.68 623.4 1338.72 623.74 1334.13 623.72 1333.17 624.64 1333.09 626.86 1325.86 626.39 1325.88 620.71 1326.46 619.98 1321.34 601.14 1317.18 599.9 1316.37 600.4 1317 602.69 1315.45 603.15 1317.82 612.4 1316.72 612.82 1318.24 621.32 1318.7 622.24 1321.84 623.23 1321.27 626.16 1309.95 626.48 1301.69 627.25 1300.42 618.25 1308.11 614.97 1307.48 610.81 1286.09 620.44 1286.8 622.52 1296.08 618.54 1296.71 620.37 1296.78 628.31 1289.83 631.45 1289.23 630.99 1287.33 632.02 1287.08 632.93 1286.66 632.51 1283.9 621.29 1282.28 621.78 1285.49 633.5 1284.68 634.21 1282.61 634.21 1277.91 636.42 1275.82 636.6 1273.76 637.52 1268.05 640.28 1265.23 641.96 1249.64 645.22 1236.06 645.86 1227.32 645.05 1225.53 630.33 1222.63 630.73 1224.65 644.64 1194.74 639.11 1194.13 634.04 1191.97 633.77 1191.29 638.5 1170.29 634.52 1148.48 628.5 1141.12 624.86 1138.55 621.68 1115.86 607.37 1110.53 608.31 1071.16 581.5 1055.02 573.06 1054.39 574.02 1051.37 572.54 1051.2 571 1047.04 568.98 1051.88 561.86 1050.14 560.98 1045.16 568.24 1034.9 561.46 1025.33 551.41 1004.04 518.21 990.7 504.19 972.97 490.25 943.64 472.51 912.64 453.11 891.04 436.59 875.35 423.33 868.4 417.41 862.96 417.41 852.98 408.66 852.83 403.26 805.93 363.21 784.17 348.23 779.71 344.31 778.89 344.98 775.53 342.99 774.16 343.13 772.31 341.78 772.94 340.92 764.65 335.28 767.46 330.52 762.11 327.38 760.52 329.9 757.5 328.07 756.47 329.59 762.11 332.9 762.37 334.1 761.61 334.27 760.91 333.33 749.93 327.38 726.29 315.27 725.62 312.91 699.57 303.08 693.85 300.71"/>
    <polygon class="cls-2" points="1094.99 619.38 1086.03 646.91 1019.85 624.35 1002.27 612.25 997.62 585.88 991.64 566.47 982.69 552.7 981.86 541.58 861.1 440.57 858.66 440.22 845.54 428.83 843.89 428.83 841.9 427.06 841.44 425.41 839.96 424.32 838.81 424.32 837.05 422.56 837.05 421.19 794.07 385.16 791.37 388.23 799.69 395.38 798.92 396.05 783.42 382.97 768.2 366.57 759.56 354.17 760.59 352.47 762.66 352.84 767.16 356.16 838.74 418.36 845.09 418.14 855.21 427 855.8 432.69 902.04 471.09 947.69 498.13 972.36 513.87 990.6 531.89 1000.8 555.96 1009.96 567.12 1021.18 576.35 1026.43 576.06 1036.03 581.97 1037.72 581.82 1038.76 582.63 1037.72 587.06 1044.31 587.88 1077.91 607.82 1094.99 619.38"/>
    <polygon class="cls-2" points="1482.72 716.96 1473.9 742.63 1390.23 715.55 1363.73 717.07 1353.42 659.57 1345.42 647.65 1347.49 646.33 1363.45 650.7 1365.19 650.86 1364.75 652.81 1364.1 653.36 1353.58 650.52 1352.44 651.19 1352.24 652.16 1354.44 656.53 1367 659.62 1368.36 658.99 1369.46 653.9 1370.25 652.13 1379.52 653.59 1387.79 656.53 1402.93 665.12 1399.22 676.01 1401.52 680.67 1410.16 681.92 1412.36 687.53 1413.3 687.11 1419.33 696.96 1419.9 702.57 1389.16 706.18 1389.89 712.52 1414.97 709.63 1436.82 717.8 1437.84 717.25 1434.28 710.39 1434.57 709.43 1466.78 721.41 1469.63 713.68 1428.17 698.38 1426.37 694.66 1427.71 693.96 1425.96 690.59 1427.01 687.68 1470.22 703.84 1471.9 699.14 1465.83 696.75 1466.11 696.06 1417.97 678.39 1412.85 668.44 1413.83 665.49 1453.06 680.16 1454.14 677.01 1409.23 660.74 1404.59 651.78 1414.39 648.34 1419.45 658.34 1435.89 664.43 1436.72 662.03 1432.16 652.99 1423.45 656.25 1421.4 655.49 1417.33 647.57 1431.68 642.11 1433.52 646.25 1432.43 650.15 1440.5 665.93 1442.18 666.56 1462.99 674.33 1482.72 716.96"/>
    <polygon class="cls-2" points="1676.05 754.67 1554.93 753.77 1536.45 742.82 1531.63 743.28 1531.09 720.61 1551.51 660.15 1550.94 651.89 1551.38 643.95 1559.07 643 1563.44 641.88 1564.81 642.7 1565.26 644.79 1568.4 644.72 1582.27 656.8 1583.19 656.29 1584.66 657.66 1585.89 657.45 1586.17 658.21 1629.6 643.87 1629.87 647.68 1626.6 658.21 1626.78 677.1 1623.56 680.46 1621.92 693.54 1636.23 702.02 1654.2 722.38 1665.96 730.55 1674.49 744.09 1676.05 754.67"/>
    <g>
      <polygon class="cls-2" points="1561.32 628.58 1559.95 629.2 1559.08 629.6 1555.84 630.03 1554.31 623.66 1553.05 618.49 1549.82 619.1 1550.8 624.67 1551.88 630.75 1549.68 631.09 1546.68 631.56 1545.55 631.55 1541.3 631.49 1536.05 631.41 1533.63 631.14 1533.48 629.69 1541.3 627.24 1544.62 626.21 1543.62 622.28 1541.3 623 1522.32 628.93 1519.35 628.21 1520.93 622.34 1519.48 621.92 1517.75 627.72 1509.85 625.73 1509.82 624.91 1494.85 620.95 1494.7 619.95 1496.54 618.92 1495.79 617.89 1491.4 620.46 1488.01 619.98 1487.62 619.19 1499.78 611.48 1496.97 608.33 1480.27 618.95 1475.97 618.86 1475.66 618.04 1485.02 611.93 1482.77 608.54 1467.35 618.47 1465.77 617.59 1466.29 614.14 1480.39 604.95 1479.48 603.52 1458.66 616.41 1457.37 619.59 1446.74 621.16 1454.46 601.77 1463.9 587.36 1458.75 586.82 1446.85 604.99 1446.09 604.96 1444.35 599.24 1452.9 586.17 1448.47 585.71 1441.95 595.58 1441.14 595.58 1439.79 591.46 1443.95 585.13 1440.04 584.67 1434.73 592.1 1442.23 607.78 1440.79 608.33 1443.65 611.44 1440.33 616.17 1427.86 588.05 1442.69 580.38 1447.64 555.65 1493.68 550.64 1496.61 555.58 1508.54 570.02 1509.87 572.87 1520.91 596.54 1520.94 598.68 1520.14 599.74 1519.11 616.6 1516.21 615.92 1515.72 617.12 1519.75 619.37 1525.82 620.62 1526.37 618.43 1522.77 617.69 1523.27 615.9 1528.02 616.02 1528.02 614.61 1523.65 614.58 1524.23 612.41 1524.28 611.19 1524.41 607.35 1524.42 607.1 1526.05 604.02 1526.31 603.53 1538.76 606.59 1546.94 602.95 1550.15 603.95 1553.63 603.53 1557.24 615.29 1559.95 624.14 1561.32 628.58"/>
      <polygon class="cls-2" points="1525.15 602.68 1522.82 607.52 1522.48 611.48 1521.23 615.97 1520.39 615.97 1521.18 600.94 1522.37 598.94 1525.15 602.68"/>
      <polygon class="cls-2" points="1556.97 586.1 1556.25 590.55 1547.98 595.04 1542.43 597.57 1543.49 601.02 1538.46 603.11 1526.57 600.46 1523.81 598.19 1510.13 569.34 1509.77 566.31 1502.27 556.67 1498.51 554.95 1495.61 550.47 1554.09 545.52 1556.12 563.33 1554.48 574.58 1556.97 586.1"/>
    </g>
    <polygon class="cls-2" points="1619.61 502.54 1617.98 507.35 1614.54 509.54 1609.84 519.28 1609.79 523.87 1606.94 527.94 1606.05 532.82 1608.23 536.73 1607.99 540.54 1589.35 536.8 1554.09 545.52 1495.61 550.47 1483.83 535.37 1516.92 506.03 1528.19 501.28 1534.56 491.7 1545.02 486.82 1609.78 473.37 1612.98 478.42 1612.26 481.39 1610.25 485.01 1609.7 489.53 1612.69 493.51 1613.18 497.66 1614.5 500.49 1619.61 502.54"/>
    <line class="cls-2" x1="1607.99" y1="540.55" x2="1607.99" y2="540.54"/>
  </g>
  <g id="Intangible">
    <g>
      <polygon points="503.38 533.24 504.47 501.28 474.58 489.61 448.94 524.17 453.31 542.6 469.72 547.82 503.38 533.24"/>
      <polygon points="621 552.59 611.46 548.77 606.76 545.69 602.36 546.86 596.78 544.51 590.18 538.79 584.3 533.21 578.58 528.96 573.74 524.17 574.74 521.57 574.68 520.22 576.75 520.22 578.46 523.11 580.23 520.22 581.7 516.74 584.48 514.14 599.23 509.18 602.41 508.83 609.61 505.41 621.23 501.28 627.61 499.21 631.8 500.04 640.23 497.8 647.49 497.74 651.33 498.98 661.71 499.98 664.31 499.15 670.33 498.62 675.64 500.45 681.54 502.52 684.66 504.88 689.74 506.41 693.93 512.55 693.81 516.68 696.52 521.22 694.34 521.99 688.91 522.11 688.79 525.16 685.25 526.65 677.58 527.71 669.91 526 661.12 522.52 658.29 519.86 654.04 520.75 647.55 523.46 641.95 527.06 637.87 531.72 635.93 538.86 635.63 542.82 633.63 546.95 631.44 549.78 628.2 551.43 624.3 552.85 621 552.59"/>
    </g>
    <path d="M0,1080h138.34l-.97-7.96-5.07-18.95-17.28-20.41-9.23-30.61v-30.13l8.75-23.33,29.16-25.76,31.1-13.12,23.33-13.12,33.53-12.15,76.31-24.55,61.89-31.67,27.17-2.7,23.56,3.1,27.16-14.94,33.47-8.75,14.02,2.31,10.82,7.47,3.61,5.53-16.49-2.57-12.35,8.24-24.46,6.44-1.67,5.67,22.91-1.81,18.41,9.27-5.02,7.59,6.05,13.65,9.65,8.65,42.84,45.9,24.22,36.29,18.78,36.27,9.79,24.11,10.29,42.56v19.48h187.41l-40.45-65.62-14.59-20.53-78.98-118.92-7.2-8.2-11.16-14.07-10.91-12.2-5.01-.8-7.9,4.28-16.04,8.49-9.53,5.23-6.15,6.63-3.26-1.86-1.86-2.1,7.44-9.99,15.23-10.68,9.29-4.77,3.89-16.97-4.25-14.75-9.16-14.97-10.51-18.55-9.16-15.42-9.18-14.95-33.96-47.8-11.19-13.18-3.98-8.31.11-8.42,6.76-13.94,8.3-8.87,5.87-9.19,12.18-18.16,10.3-18.38,3.98-8.96,6.54-2.34,3.65-10.52,5.21-7.74-.78-4.66-1.22-3.21-1.76-1.77v-3.32l-4.3-5.9-20.49-13.65-4.94-6.45-54.35,21.47-68.14,14.1-19.97-51.11-42.01-122.48,19.68-43.78,36.42-45.23,51.87-16.26,41.27,13.85,7.99-5.19,20.88-2.98,16.35,6.34-.57,1.55-8.41-2.94-2.64,6.46,80.56,31.26,17.78,45.25-2.16,2.39-11.57-23.23-4.05-1.29-19.49,10.28-21.25-8.5-4.35.3-15.92-6.03.49-1.89-61.6-24.51-.49,1.38-50.92-20.07-3.47,2.27-1.88-.3.4-2.07-12.07-3.06-9.78,4.65-12.66,13.64-16.01,24.22,5.23.21,13.65,5.73.79,3.55-4.15-.98-15.13.89-4.55-2.57-8.21,12.25-7.02,28.28,5.74,29.18,9.29,22.04,46.28-66.05-.5-7.31-12.55-7.61.29-2.88,8.31,1.49,8.01,7.32,4.35,36.38-24.12,35.59,1.58.9-14.44,20.37,2.57,3.85-2.47,6.92,2.17,2.09,36.59-46.28,1.77.59,22.85-29.47,13.65,10.48,5.04-6.43-4.75-14.03,2.72-1.25c.26-.2.55-.33.88-.42l.26-.11.19-2.37-4.94-1.3-9.59,2.19-11.37-6.93-2.77-26,2.08-8.61,5.73-5.62,10.98-1.79,98.68,38.46-.21,11.66-17.2,1.99-39.15-15.53-3.27,4.45,4.75,13.55,4.61-1.53,4.6,9.19-1.41,1.68.44,2.58h2.63v1.23l89.4-9.64,3.01,1.32,9.82,31.42-91.5,17.52,1.77,8.84,2.57-.79,4.96,1.78,12.38-2.14,5.93-3.09,27.08-5.48,4.34.27,29.9-6.03,1.15,4.15-17.69,23.02-70.09,24.5-12.21-33.25-1.6.53-5.22-14.8-6.27,1.88,5.12,14.5-2.74.63,16.9,47.06,6.38,4.62,24.68-8.24-2.47-6.55,70.25-23.71.98,2.11-12.52,4.08,1.02,2.84.26,5.04,3.36-.45.62-4.78,33.53-3.95,37.31,8.19v.02s83.28,18.65,83.28,18.65l11.95,4.73,10.78,8.17,12.8,2.3,10.48,4.81,7.62,5.55,4.2,4.45,1.77,5.6,9.57,13.28,9.26,5.14,8.96,9.56,9.88,8.47,14.07,10.71,15.36,8.91,12.66,10.72,13.03,11.09,3.23,3.63,6.01,4.84,5.37,3.19,8.77,8.67,9.91,15.28,7.36,14.29,6.73,13.26,2.66,11.64,3.4,15.96,8.92,15.29,12.12,10.47,34.7,20.23,13.4,6.94,13.3,3.54,22.47-.72,19.53-1.06,21.05,2.36,30.82.35,45.53.35,8.52,2.13-2.26.91-6.08.58-4.5-.19-22.14-.22-21.73-.02-22.03-.11-8.27-.14-9.41-2.05-11.85-1.19-12.38.88-21.98.88-5.35-.55-12-2.6-6.04-2.2-24.68-14.09-15.72-9.25-9.79-6.55-7.8-7.7-5.65-8.38-3.93-8.56-1.97-6.99-1.91-10.93-2.7-8.96-1.87-4.72-2.12-2.61-3.39-2.73-2.55-2.25-1.11-3.01-1.8-2.6-2.45-4.05-.22-2.46-2.41-3.85-2.63-3.81-3.16-4.64-.75-3.2-2.59-2.53-3.31-3.16-2.89-2.92-8.05-2.37-2.66-2.16-1.52-3.56-3.45-4.74-3.56-3.57-7.2-5.55-3.99-3.2-2.41-3.01-3.13-1.8-1.48-1.68-2.08-2.28-6.99-3.64.36-1.94-4.42-1.43-.39,1.73,3.09.53v.87l-6.55-1.08-9.28-.54-2.66-.11-2.81.5-2.44-.22-3.78-1-4.14-1.4,2.36-3.46-1.08-.54-2.23,3.27-.82-.24.22-1.42-1.48-2.75-2.58-5.59-.48-5.43.72-5.44-.64-1.73,1.09-.75-.52-1.5-1.37-2.25-1.26-.4.36-1.45-9.12-2.06-8.62-1.73-3.98-2.16-4.03-5.47-8.05-8.51-6.71-5.62-7.74-4.83-2.73-3.26-3.62-4.19-3.26-1.41-3.54-.04-3.3-5.07.36-1.62-.4-2.37-6.48-3.34-16.39-4.18-20.32-4.87-4.06.77-.8-1.5-3.11-1.68-3.62-.9-3.06,1.58-1.89-1.25-3.33-.16v2.13l2.74-.11,2.12,1.16,3.06-1.89,3.78.6,2.58,3.03-4.99,1.64-2.45.2-4.79-2.09-5.43-2.13-8.1-4.07-7.56-4.06-8.41-3.94-.57,2.13,6.61,2.81,10.98,5.84,13.6,6.48-2.73,2.09-3.62.88-11.55-2.21-6.45-.76-6.67-2.5-2.78-2.25-2.25,1.57-2.05,4.1-3.58,8.73,1.1,4.17v3.48l-3.38,1.68v2.47l1.49,6.47,3.9-.36-.19-1.88,5.8-.17,5.04-.38,1.41-.66,1.88.56,1.83-1.04,2.71.85,3.88-1.47,9.72-1.6,3.63-1.72,2.38.34,2.94-1.83,3.65-1.52,4.45-1.18,2.68-2.65.9-3.04,4.78-.11,16.47.22,7.41-.48,2.61-1.59,6.62,1.06,2.25,2.26.65,3.74,2.39,3.07,3.74,5,10.05,5.98,3.05,2.48,7.51,6.83,8.9,7.92,5.29,5.26,4.56,3.52,3.83,2.84h3.3l2.3,1.05,1.81,4.26.33,4.99,3.72,6.23,2.87,5.16,4.14,4.96,4.95,4.68,4.62,5.02,6.08,5.26.2,1.16-2.15.14-1.53,2.78.92,1.98,4.78.23,3.23-1.83,7.72,5.44,5.92,2.59,6.75,2.34,9.48-.13,5.54.37,6.09,2.56,5.67,3.33,3.55,4.15,2.98,4.42,2.3,4.67,4.78,7.6,5.15,7.07,4.54,5.66,4.04,4.72,2.88,2.31,3.78,2.01,3.14,3.04,4,4.08,4.03,2.94,5.68,4.6,2.75,3.18,2.15,10.09,1.05,5.95,1.99,7.23,3.49,7.43,4.54,6.86,2.15,3.99,5.83,5.8,6.37,4.1,9.22,5.19,13.48,8.1,8.81,5.23,13.8,8.15,10.21,3.52,13.62,2.29,8.16-.29,27.89-1.48,6.18.27,11.62,2.1,15.59.62,21.23.25,11.82.25,5.67,2.88,6.7,2.98,11.87.64,16.89-.22,6.8.22,2.67,1.3,7.7,6.73,4.29,6.48,2.87,7.07,5.39,9.63,14.49,16.6,5.02,4.48,5.67,2.96,3.51,2.91,5.77,1.76-.94,1.8,4.98,4.62,2.72-.1,2.81-1.37,14.82,7.05,11.15,4.02-.74,3.11,2.88,1.68,6.31,1.91,2.43-2.13-.18-1.15,1.51-.73,13,1.65,13.35.19,3.53-.04.73,1.09,20.19-1.42,8.43-1.31,12.59-1.73,11.51,1.62,16.79,8.07,2.02.41,5.71,3.69,4.39,4.29,6.31,2.55,1.6,2.12,4.52,6.46h9.31l8.27,3.93.78,1.18,2.63,1.05,11.15,4.07,1.83,1.84,1.71-.26,8.13,1.7,8.92,2.23,4.33-.92,1.84,1.45,14.6,1.23,9.5-.51,1.15-1.29,3.6-.25,1.66.44,9.44-2.24,20.92-4.49,1.92-2.63,4.88-2.19,13.54-.7,12.45.38.58-3.33,4.62.64.64.7h2.44l1.41,1.35,1.93-.58,5.83,2.19,3.08.51.58,1.22v1.67l2.25-.58,2.44.64,2.18.39,2.18,4.94,2.7,1.28,3.14-1.73,17.58,7.76,3.85,2.89,5.91.96,6.42-2.31,2.43.58,1.61-.51h4.04l2.89-2.51,17.39-5.58,11.81-1.35h8.28l5.77,1.99,5.71,2.83,5.84,8.92,2.76,8.4,7.25,22.98,3.98,8.92,8.28,14.11,2.76,2.44-2.7,5.65,2.06.71,2.18-4.5,4.62,4.3.9.26,4.23,4.11,10.14,4.68,4.69,2.12.06,1.67h1.8l4.04,1.99.26,1.28,3.14,2.44,1.35.32,2.37-.64,3.98-2.18,3.02-.32v2.24l2.37.39,2.57-1.29,3.53-.83,16.11,2.31,5.39,1.9,4.72,2.43,8.99,4.12,2,.73,4.28,1.24,4.52,1.31,2.97,1.73,9.54,3.95h3.37l1.81.41,2.3.66,3.13,1.48,2.72.58,3.37,1.07,1.27.82v-15.55l-9.17-2.47-6.17-1.56-4.98-.95-23.09-6-33.15-5.96-15.79-2.31-3.12-.74-2.31-2.16-5.14-1.19-.67-2.16-18.77-10.06-6.63-5.88-7.6-10.87-.71-3.39-1.23-2.08-.39-3.02,2.12-3.82.32-3.2-2.08-5-1.3-5.68-5.9-11.79-2.3-4.14-1.29-1.76,1.8-4.32-1.41-.47-1.76,3.6s-5.72-5.11-5.93-5.14c-.22-.04-2.77-1.33-2.77-1.33l-3.78-2.92-9.42-4.67-3.27-.29-2.2-1.01h-10.03l-9.68,2.41-12.91,4-.64-2.2h-1.19l-.72,3.45-7.66.87-13.31-3.06-5.36-3.45-1.76.39-9.57-5.35-1.69-3.31-2.4-.04-2.16,1.4-2.99.15-2.91-1.73,2.48-3.16-4.35-3.53-1.26.94-7.16-2.23-6.61.18-1.3-1.01-4.28,1.04-.97.54-4.21-2.05-4.1,1.19-3.34-.11-.83.72-8.52-.9-3.96.25-2.91,1.62-7.16.9-2.91.18-2.77,1.26-3.31-.25-2.16,1.04-9.89,2.73-1.18,1.66-13.74,3.95-9.21,1.69-9.46.76-1.51-.68-4.06,1.22-2.27-.54-10.1-.4-1.48-1-3.06-.29-2.15.25-8.89-3.45-11.25-5.54h-1.55l-5.43-2.91-12.15-7.35-11.83-9.32-3.07-2.12v-2.4l-3.79-1.12,1.12-2.33v-4.91l-4.91-1.84,1.34,6.75-1.67,2.56,1.22,2.06-.44,1.97-1.84.89-3.13-1.9-9.92-5.14-10.54-3.06-11.82-.84v-2.85l-3.57-.17-2.52.9-1.27-.5-4.36.06.28,2.22-7.55,1.01h-4.17l-4.15,1.01-3.65,1.76h-15.5l-12.6-.88-14.36-2.52-12.1-3.78-20.78-10.07-14.49-8.7-13.23-11.97-16.5-24.81-9.08-13.37-4.47-9.75-4.59-13.49-2.83-11.18.19-2.75-.59.18-2.96-2.3-.92-3.43,1.99-.3-.33-1.39-2.03.33-.93-2.75-.07-3.6-1.86-2.82-.78-2.41-3.19-7.02-2.4-13.5v-5.04l-1.65-6.53-3.06-5.79-3.24-12.56.37-2.03,1.56-1.03.69.56.68-1.85,17.78-1.04.18.44,3.93-.87,8.49-1.24,11.26,7.42.32,1.33,1.54-.04.02,1.15-1.29.04,1.22,7.29.3,3.4-5.05,6.86,1.08.75-7.11,9.89,3.9,3.71,9.02-12.4,1.99.4,2.13,13.83.86-.11.77,5.19-.86.12.92,4.89,1.44-.11-.57-3.27,5.08-.71-.99-5.94-1.03.11-.56-3.43,1.15-.09-.55-2.99-1.3.09-.77-5.3h1.17s-2.56-16.06-2.56-16.06l-1.34.11-.38-3.12,1.15-.16-1.67-9.66-7.58-5.1-.02-.88,9-3.47-.28-.69,1.17-.46.27.65,2.85-1.5,11.87-4.82,9.51-2.47,9.7-1.36,8.04-.02,1.45,3.5-6.56,23.08-20.33,9.64,1.17,6.19,19.64-9.21.54.9,15.38,4.25.48-1.17,1.05.32-.46,1.15,16.34,4.81.87,5.13,2.32-.34-2.19-11.46-22.88-6.79-2.39-6.57,2.43-8.4-.99-.26,1.41-4.6.97.28,1.4-5.48,3.12-3.85,5.34,5.45,2.49-1.76,2.07-1.32,15.96,4.37,1.74.16-.44,1.96-.65.53-10.52-2.84-1.14.68-.2.97,2.2,4.36,12.56,3.09,1.36-.63,1.1-5.08.79-1.77,9.27,1.46,8.27,2.93,15.14,8.6-3.71,10.88,2.3,4.67,8.64,1.26,2.2,5.6.94-.42,6.03,9.85.57,5.61-30.74,3.61.73,6.33,25.08-2.88,21.85,8.18,1.02-.56-3.56-6.85.29-.96,32.21,11.97,2.85-7.74-41.46-15.29-1.8-3.73,1.34-.69-1.75-3.37,1.05-2.91,43.21,16.16,1.68-4.7-6.07-2.39.28-.69-48.14-17.68-5.12-9.94.98-2.95,39.23,14.67,1.08-3.16-44.91-16.27-4.64-8.96,9.8-3.43,5.06,10.01,16.44,6.08.83-2.4-4.56-9.05-8.71,3.26-2.05-.74-4.07-7.93,14.35-5.46,1.84,4.14-1.09,3.9,8.07,15.78,1.68.63,11.66-5.85-.98-1.45-3.94,1.54-7.24-11.56-1.53-.65-1.03-10.31,13.65-3.18,1.17,11.08,6.08-1.49,1.16-1.84h.91s.51,1.1.51,1.1l2.89-.89-1.04-9.99,10.61-.62,4.78.89,1.2,2.02-4.9.79.31,3.02,6.63-1.92,1.5,2.7-25.24,11.36,2.84,5.32,11.37-5.6,11.94-3.84,4.61,5.94,3.31,6.63-24.04,12.03-.86,1.2,2.73,4.95,24.7-12.14,3.17,6.82-18.8,9.49-3.36-1.11-3.17,1.68,3.89,7.82,20.24-10.41,1.73.25.87.71.28,1.35-.81,1.05-20.3,10.36,2.78,5.81,8.31-3.75,3.45,6.33-8.2,4.52,1.01,1.15,1.01-.34,5.22,2.7.34.9,23.69,4.42.87-3.41,10.03,2.16-.48,2.73,2.35-.96,2.2-6.38-4.6-1.29-.26.84-5.04-1.62-3.77-9.71,15.5,4.71,1.06-.73,3.88-10.99-22.91-6.66.37-1.18,18.98,5.6,2.46-6.34-28.41-8.26-1.35-3.59,6.8,2.15.85-2.66-2.05-.75,1-2.35,28.81,8.77,1.5-3.8-28.01-8.41,1.7-5.35,17.11,5.1.34-1.19,11.09,3.55,1.25-3.5-47.75-14.12-4.86-12.16,11.96,3.16,5.29,1.77-.7.76-6.06-1.63-.52,1.85,11.62,3.35.02,1.41,1.42.04.51-3.66,20.86,2.4-.49,5.73,3.11,1.02.33-7.41h5.55l-.11,7.29,2.2.06.44-7.94,7.69-.94,4.37-1.14,1.37.83.45,2.09,3.14-.07,13.87,12.09.92-.52,1.47,1.37,1.23-.21.28.75,43.43-14.34,1.06-3.46,1.31-8.14-.79-.92-45.11,14.96-14.04-5.86.04-1.74,3.25-1.37,8.07,3.17.76-1.91-4.42-2.42.51-1.16,11.48-6.82,4.41-.1.58.75,1.13-.21,1.85-2.39,2.35.27,4.61.53,7.55.88,18.86-6.07.59-3.35-9.18-6.44-.75.93-1.96-1.24-14.92,11.2-.89-1.2-2.36,1.67-2.87-3.62,16.32-12.9,7.26-4.72.82.85,1.33-1,11.71,8.73,1.44-2.01-12.26-8.6,4.15-3.49,22.04,15.82,1.13-1.61-1.34-1.52-20.53-14.4,19.2-16.77,4.28-.14.2,5.34,1.37,7.59,2.02,5.24,1.71-.58-2.12-5.14-.78-7.32.64-.43-.13-3.61,2.63,1.25,7.74,7.9-1.68,1.64.66.68,2.01-1.1,2.94,5.75,1.51,8.22-.48,6.51-1.26.34,1.57,3.76-.79,1.58-9.86-14.72-1.64.93,11.57,18.18.96,3.11-1.06,1.43.31,2.19-.41,1.27.65,1.08,2.15,2.82.6-.35,1.9,2.37-.6.57,5.63,4.86,9.62,4.4,10.5,3.95,8.73.23,13.97-2.56,4.42-1.21,1.31.28,1.86,3.32v2.59l1.98-.21.31-5.73-1.11-1.21.21-1.35,6.74-2.88,5.88-3.38.9.69,1-1-.66-1.07,1.9-2.45.97-1.83,1.14-.74-.45-2.1,2-.45.42,1.97,2.97-.55-.44-2.14,12.64-1.77.73,3.8.17,3.76,5.43.84-.14-7.34-4.42-.37.1-1.15,5.15.46,8.89,4.94,5.11,1.97,10.89,1.76,9.95-1.14v1.21l-6.08.81-.21,1.92,6.47-.44.27,1.99,6.24.12v-4.62h3.35l4.38,1.69,4.15,3.54,3.53,3.22-.34.7,3.08,3.9,1.34.24.24,1.38.75-.11,1.52,5.62h1.23l1.48,2.66-.56.59,6.8,6.87,5.53,2.88,3.2,1.6,2.26.66,1.23-.49,8.86,2.59,14.76,4.05-.35,2.16,5.38.42.51-1.42,5.14,1.58,2.77.94,3.37,1.3,13,5.13,3.8,1.18v-21.25l-3.8-1.54-9.09-4.67-4.23-2.06-4.08-.4h-4.34l-4.23-2.7-.3-.69-8.71-4.67-15.57-9.13-6.42-5.3-5.53-4.5-3.04-3.21,1.1-4.2,4.63-2.52-.46-2.32-3.85,1.94-1.01-1.56-2.2-1.62-4.58-6.13-1.61.95-4.65-6.44-12.95-18.18,3.04-3.7,1.03-2.14-.05-1.63.75-2.28,2.89-6.97,2.02-4.24,3.25-3.06,1.67,2.62,1.54-.82-1.35-2.18,7.41-1.78,4.26-1.71,4.09-2.89,3.79-3.48,6.56-4.33.89,1.12,1.25-.83-.43-1.33,7.77-4.36,1.65,1.63,3.53-2.31,2.77-.26,6.61,2.11,1.24-.06,6.91,2.46.71,1.84,4.24,1.2,4.48-.67,3.46-2.42,1.85-1.98,3.29-7.58,3.8-3.94v-17.52l-3.8,2.92-2.67,3.4-.71,5.65-1.36.06-2.13-2.72-2.14,3.54,2.59,3.95,3.21-2.67.63,1.14-1.25,3.93-4.35,5.03-3.69,2.36-3.16.76-2.5-.59-2.62-2.7-3.15.54-8.17-2.78-7.95.22-4.8,3.01-9.01,4.89-9.87,7.8-.82-1.2-.91,1.07.48.92-2.7,2.01-12.85,3.47-5.37,3.95-1.76-.56-4.21,6.57,2.56,1.36-2.48,6.93-2.53,5.17-4.69,4.06-7.55,3.08.31,1.85-1.45.93-.83-.68-2.27.83,1.36,1.7-8.74,7.25-8.69,3.09-5.61-.42-1.03,1.04-16.9,2.65-8.89,2.61-2.25,1.5-4.73,3.9-10.89,1.42-6.3,1.02-.56,3.09-5.97,1.11-2.09.52.38,1.3,1.77-.45.55.98-4.65,1.76-.91-1.59-1.98-.15-2.94,2.26-7.39,4.55-.88,1.2-1.71-.32-1.24.96-1.06-.7-3.44-.91-.91.44-1.56-1.03-2.16-3.24.36-1.23-2.57-3.36.3-2.53-1.85-2.83,1.85-1.53-1.12-1.83.47-1.85-1.06-.57-.85,1.24-4.42.95-2.18-18.09,3.24-7-1.12-.58-2.12,3.91-.97-.5-2.12-4.62-6.68-9.87-6.93-6.28-17.33-7.42-.68.56-4.22-.99-3.35.26-.62-3.51.76-3.21,1.16-.51,28.45,10.58.1,1.03,2.16.72-.14,1.84,1.37.47,1.04-3.73-39.94-15.21,1.48,3.7-13.78,7.43-3.61-1.28-1.16,1.44,3.03,2.35-20.04,6.66h-.38c-.24.06-.49.11-.75.11s-.51-.05-.75-.11h-.45l-.14,11.45,1.41,9.89,1.52,1.94-8.41,13.28-1.94,1.34-1.84-5.71-2.1,1.02,2,7.48-8.4,6.24-.66-.62-1.45.76.53,1.15-13.6,6.75-2.95-.05-10.35-26.03-5.49-1.63-5.83,2.21-5.03,2.09-11.89-2.67-2.76-2.26-12.34-26.04-1.6.72,11.04,23.67.03,2.13-.8,1.07-1.03,16.85-2.9-.67-.49,1.19,4.03,2.25,6.07,1.27.55-2.21-3.6-.74.5-1.78,4.75.11v-1.4l-4.37-.03.06-.26.57-3.13.13-3.84,1.64-3.32.26-.51,12.45,3.07,8.18-3.64,3.21,1.01,3.48-.44,3.61,11.77,2.71,8.86,1.37,4.43-1.37.62-.87.4-3.24.43-1.53-6.36-1.26-5.18-3.23.61.98,5.57,1.08,6.08-2.2.34-3,.47h-1.13s-4.25-.07-4.25-.07l-5.25-.08-2.42-.27-.15-1.45,7.82-2.44,3.32-1.04-1-3.94-2.32.73-18.98,5.93-2.97-.72,1.58-5.88-1.45-.42-1.73,5.81-7.9-1.99-.03-.83-14.97-3.96-.15-1,1.84-1.02-.75-1.03-4.39,2.58-3.39-.48-.39-.79,12.16-7.72-2.81-3.14-16.7,10.6-4.3-.09-.31-.8,9.36-6.12-2.25-3.38-15.42,9.92-1.58-.89.52-3.44,14.1-9.2-.91-1.43-20.82,12.9-1.29,3.17-10.63,1.58,7.72-19.39,9.44-14.4-5.15-.56-11.9,18.17h-.76s-1.74-5.74-1.74-5.74l8.55-13.07-4.43-.47-6.52,9.87h-.81l-1.35-4.11,4.16-6.34-3.91-.46-5.31,7.44,7.5,15.67-1.44.57,2.86,3.1-3.32,4.72-5.8,7.3-1.42,2-3.4,1.14-1.29-12.12-2.19.25,1.28,12.64-12.82,4.02-.86,1.06-4.95,1.45-.71-.81-1.25.16-.3-1.49,2.19-.62-3.05-10.16-1.24-.83-.32,2.36.85,8.95.56,3.76-4.25,1.44-1.3-12.42,1-.26.02-2.03.18-1.17-.52-1.47-.12-1.44-1.66-4.78-4.37.18-2.11,1.31-16.25-6.4-3.38,7.41,19.93,8.41,1.07,9.94-1.22,4.45h-6.51l-.49.89h-1.67l-.68-.94-7.4-.69-11.59-3.62-.05-1.37,1.27-.78.84.08,1.11-.71-1.93-2.41,1.7-3.31-3.73-1.79-8.07-25.38-5.3,1.67,5.08,15.28-.37,1.06-1.89.6-.37.97,1.51,4.11-2.82-.88-.9,2.45.52.93-.35,1.54,6.69,1.94.53,1.27-.66.68.02,1.14,1.73,1.49-.73.52-18.75-5.27.63-2.85.57-.18.11-1.42-1.96.33h-4.59s-.97.89-.97.89l-.07,2.24-7.23-.47.03-5.7.57-.71-5.11-18.85-4.17-1.24-.81.5.63,2.3-1.54.44,2.36,9.25-1.1.43,1.52,8.5.46.93,3.13.97-.56,2.94-11.32.32-8.26.77-1.27-8.99,7.69-3.29-.63-4.17-21.39,9.64.71,2.08,9.27-3.99.64,1.83.07,7.95-6.95,3.14-.6-.46-1.9,1.03-.25.91-.43-.42-2.75-11.23-1.62.51,3.21,11.7-.8.73h-2.09l-4.69,2.21-2.09.17-2.06.91-5.71,2.77-2.82,1.68-15.59,3.26-13.57.64-8.75-.81-1.79-14.72-2.9.4,2.02,13.91-29.91-5.53-.61-5.07-2.16-.27-.68,4.72-21-3.98-21.81-6-7.36-3.66-2.57-3.17-22.69-14.32-5.33.96-39.37-26.82-16.15-8.44-.63.97-3.01-1.48-.17-1.55-4.16-2.01,4.84-7.13-1.73-.88-5,7.27-10.25-6.78-9.56-10.06-21.3-33.2-13.34-14.02-17.73-13.94-29.33-17.74-31-19.4-21.6-16.52-15.68-13.26-6.95-5.93h-5.45l-9.98-8.73-.16-5.4-46.89-40.06-21.76-14.99-4.46-3.92-.81.67-3.37-1.99-1.37.14-1.84-1.34.62-.86-8.28-5.64,2.81-4.77-5.36-3.14-1.59,2.52-3.02-1.81-1.04,1.5,5.65,3.31.26,1.21-.76.16-.7-.92-10.98-5.97-23.64-12.09-.67-2.36-26.05-9.83-5.73-2.38,18.96-11.89,54.51-53.13,27.74-31.08s39.41-31.56,89.14-118.46l1.69-6.32,19.38-35.26L923.28,0H0v1080ZM1525.06,602.87l-.61,1.89-1.53,2.58-.1.17-.34,3.97-1.25,4.49h-.84l.79-15.04,1.19-2,2.78,3.74-.09.2ZM655.95,342.58l1.33-.75,5.68,6.43,1.94,12.68h-1.94l-7.01-18.36ZM1003.2,667.3h-.96l-6.28-19.06-3.62-18.62-4.84-1.06-5.01,1.17.34,3.45-6.97-6.93-67.18-54.47-3.07.85-17.47-16.19-14.4-19.17,3.18-1.06-8.15-17.14-11.53-9.75-14.83-5.92-19.16-11-1.27,1.9-25.51-11.22-30.27-12.59-8.79-4.88-4.98-8.25-.85-10.38v-16.83l2.44-2.02-.32-26.66-31.12-15.16-5.82,12.29,22.54,11.54,3.08,5.08-.32,42.56,3.28,4.96-.1,6.15,4.23,4.23,22.65,4.67,32.07,13.76v1.48l-3.48.64-6.25,1.68-125.66-28.48-4.76-8.03,4.02-15.46,1.16-.42,8.59,9.52h3.06l4.02,4.23,7.09-5.92-4.75-5.5,7.4-6.46-20.96-22.44,4.1-15.4,3.34-5.89,2.36-.24,1.62-5.61-1.94-.32,1.81-8.05,10.01,4.8,2.59-5.79-11.22-5.18,4.22-13.26,6.16-5.04,4.5-1.86.83,1.3,16.22,7.41,1.58,4.13,36.38,17.17-5.04,10.51,1.21.58,2.98-4.99,2.77,2.18,2.7,13.17,3.88,5.48-1.64,14.17-2.5,5.11v9.62h8.29v19.87h8.85v-29.25l3.08-2.43v-10.62l2.69-2.36v-11.61l.88-.35,6.11,3.2,1.82,3.6v17.99h12.34l15.83,12.81v-10.74l2.08-.4,3.24,2.79.14.99,4.56,2.97,8.02,6.45,4.28,15.54v17.53h10.75l1.1-1.19h3.78v3.25l2.06,2h4.59v2.26h7.69v-9.12l1.37-.54,31,26.15v.77h-3.77v3.8h9.55l4.05,3.56v2.32l15.54,13.08v10.74l-9.54,11.63,3.16,2.47,6.06-6.89v12.69h10.81v14.97l2.08,1.84h10.8l1.71,1.46h19.52l4.93-3.61,6.44,9.54,3.98,14.28,5.56,36.07,1.46,9.6,1.95,5.56,1.03,3.89.07,1.62,1.06-.07,2.4,14.12-1.2.31.41,4.37ZM1246.16,771.38l2.32.65,2.03,3.19-1.16,1.28-2-1.45h-31.66l-3.99-.27-4.64-1.78-2.7-2.05,21.91.17,4-.54v-.59h3.24v.73l2.18.66h10.47ZM1229.87,714.94l7.88,27.64-2.37,3.9,2.98-.41,1.2,3.47-.88,2.41-3.14,2.1-20.6-.16-16.17,1.6v1.25l-12.53-.16.03-1.27,2.69.05v-1.94l-82.67,4.52h-16.25l-11.01-3.24-39.94-22.95-9.13-6.33-4.83-6.68-7.33-18.06,4.17-.87,17.34,10.37,1.73-.36,16.12,9.35,3.59-5.92-7.62-4.53-.63.47-2.91-1.79v-.68l-15.5-9.08-.63.84-11.16-6.84.66-1.89-2.76-2.35-.63.72-2.7-2.36.63-.69-10.17-17.43-1.28-5.24-.8.03-2.35-14,2.08-.1,1.22,7.23,4.06-.42-.32-3.89,10.23-3.27,33.78,10.75,2.32-7.11-41.53-13.77-.37,1.06-3.22-1.37.9-.74-8.06-9.27-1.72-15.28-4.65-26.38-5.98-19.4-8.95-13.77-.83-11.12-120.76-101.02-2.44-.33-13.12-11.4h-1.65l-1.99-1.77-.46-1.66-1.48-1.07h-1.15l-1.76-1.78v-1.37l-42.98-36.03-2.7,3.08,8.32,7.15-.77.67-15.5-13.07-15.22-16.41-8.64-12.4,1.03-1.7,2.07.37,4.5,3.32,71.58,62.19,6.35-.22,10.12,8.87.59,5.68,46.24,38.41,45.65,27.04,24.67,15.73,18.24,18.03,10.2,24.07,9.16,11.15,11.22,9.24,5.25-.29,9.6,5.9,1.69-.15,1.04.83-1.04,4.42,6.59.81,33.6,19.95,17.08,11.55,9.17,7.3,16.92,9.39h1.73l15.03,8.26,3-.8.51,1.18,15.38,4.95,2.37-.67,13.81,7.84,9.68,8.08-.89,1.11-8.32-6.87-.4.37-.86-.7-14.47,4.49,2.02,6.47,8-2.39.49,1.72,1.29-.49,1.63,4.77-18.25,5.71-4.18-13.05-7.7,2.43-4.04-13.12-6.57,1.84,4,13.25,2.85.66,3.68,11.55-4.31,1.38-3.17-10.23-1.42-.91-5.52,1.58-.91,1.36,2.86,8.97-1.14.42-1.39-4.22-5.73,1.81-.23-1.02-1.16.32-7-22.61,1.19-.41-.18-1.11.66-6.02.04-4.65,4.06-1.21-.42-1.68-4.21,1.25-5.17,2.37-8.46,2.47,11.64,37.39-5.47,1.71-1.77-.07-.19-.74-19.89,5.95,2.47,8.14,13.86-4.15.38,1.09-13.94,4.13,2.6,8.13,2.7-.8,2.55.84,1.27-.42.54-1.94,11.5-3.56.88.8-3.75,15.4-.56.38-.74,2.81.3.81-3.12,11.72,6.47,1.77,1.37-.86,7.46-27.67-1.53-.45,2.01-8.23,1.5.29,1.02-4.05,25.38-7.89,1.08,3.38,15.35-4.67.76-3.86,25.23-7.97.57.65-4.6,23.55-36.21,11.16,2.73,8.91,8.61-2.44.51-.84,20.88-6.34,8.46,4.26,6.51,24.66,1.65-.35.47,1.48,6.51-1.36-9.82-36.49,5.68-28.37.56-6.92.98-.09.47,5.07h3.8s1.49-.61,1.49-.61l-3.01-4.86.88-.49,9.98,15.97,7.03-1.87,2.83,9.16,2.41,12.91,3.88,10.27ZM1603.85,573.2l.22-.11,13.57-4.22.82.92-8.94,8.97-5.34,4.25v-1.67l4.62-3.84-.66-1.24-4.29,2.31v-1.54l3.9-2.13-.56-1.23-2.36.7-.98.19-.33.05-.2-1.13.53-.28ZM1610.47,585.05l-2.62,2.76-2.92,4.4-1.36-2.47-.49-3.04,5.34-5.32c.23-.47,12.58-12.54,12.58-12.54l1.28-.17,4.84-5.2,12.96-7.02,1.4,3.03-.14,3.49-11.38,3.5-6.52,4.77-10.3,10.95-2.67,2.86ZM1624.45,595.82l-8.37,4.79-2.6-2.04,2.81-4.98,18.63-18.18,12.95-2.39,1.02,1.32-24.44,21.48ZM1745.63,635.43l-6.78,3.24-9.69,4.07-7.71,1.7-5.4,1.05-3.88.56-1.08-3.73,12.93-5.18,22.24-8.64,2.8.59.48,3.02-3.91,3.32ZM1850.93,632.77l1.7-2.33,5.15,3.83,7.16,5.38,5.96,3.92,7.63,3.88,3.08,1.87-2.91,5.5,5.87,1.06.53,4.06,1.37,3.03,1.1.43-1.27-4.21-.35-3.37,10.11,3,2.68.69,1.84-.32,4.03,2.57.69-.67,2.73.93-1.21,1.58-1.35.26-1.46,4.78,2.64.86,1.26-3.89-.11-1.12,1.16-1.35.77.87.14,1.06,4.1,2.82-1.42.14-1.84-.97-1.06,1.58.66,1.37,2.35.89v.95l-6.41-1.38-6.04-1.78-4.5-1.26-.23,1.15-.8-.37-.89-1.88-7.4-1.93-9.73-3.48-14.19-9.5-6.53-5.78,1.61-1.47-.37-2.42-4.32-6.39-8.12-3.77.66-1.24-1.67-2.04.12-.57,3.51,2.53,2.65,1.55.92.95ZM1828.1,594.82l3.86,4.63-.61.49,3.97,4.46,1.87,1.61,2.64,3.19,2.14,4.07,1.77,2.04.88-.6,1.63,1.98,3.48,1.75.81,1.13-1.38,2.53-.24,2.52-1.58-.33-1.11-1.21-4.94-1.38-1.92-.03-3.19-1.47.03,2.06-2.89.52-5.91.39.05,1.5-7.42-3.1-.76-1.05-2.77-.14-3.66-2.49-1.75,1.12-1.18-.31-1.39-2.44-2.06,1.05-16.83-4.09-3.41-.4,1.11-1.65,1.92-.52,2.03.44,4.47-2.37.64.18,3-1.61-1.44-2.38,5.58-3.02,6.64-7.3,3.69-2.19,8.94-5.3,5.29,7.72Z"/>
    <polygon points="199.92 1080 214.82 1072.12 219.68 1063.73 216.31 1058.94 209.56 1055.39 207.26 1045.27 208.85 1036.04 219.68 1031.79 232.63 1030.54 237.6 1032.67 248.25 1032.85 257.65 1029.12 259.96 1024.86 267.95 1021.32 284.8 1017.06 294.92 1013.15 306.28 1011.73 318.7 1010.49 331.47 1003.22 344.25 996.47 351.7 990.08 362.35 990.08 381.16 990.08 389.68 992.57 397.84 992.57 399.97 996.29 403.52 1000.55 412.04 1003.22 421.09 1003.22 428.54 999.84 434.4 997 437.77 995.05 448.41 996.83 454.8 999.84 464.56 1008.36 475.56 1018.12 478.94 1026.64 478.94 1039.06 492.42 1050.42 506.26 1067.45 515.31 1080 353.83 1080 324.73 1053.26 321.18 1048.64 320.12 1042.96 314.62 1038.88 305.03 1044.21 304.5 1050.6 297.4 1055.92 292.08 1061.77 284.09 1072.24 280.54 1080 199.92 1080"/>
  </g>
  <g id="Mental">
    <path class="cls-3" d="M841.7,392.79c-.1-.08-.2-.17-.29-.25h0s.29.25.29.25Z"/>
    <path class="cls-3" d="M711.39,308.51c-1.03-.38-2.07-.75-3.11-1.11h1.05l2.06,1.11Z"/>
    <g>
      <path d="M1266.46,780.12c-.7-.42-7.07-12.61-7.78-14.39-4.03-10.19-7.51-21.11-11.31-31.39-6.18-16.74-7.73-26.04-11.23-43.55-1.44-7.18-6.32-14.66-7.5-22.24-.25-6.64,16.66-4.74,21.07-5.18,3.48-.35,7.64-2.03,11.4-2.35,4.78-.41,6.85,1.07,12.41-1.24,16-6.62,28.4-15.1,47.17-15.7,5.51-.17,5.52,1.84,8.94,2.41,5.25.88,8.99.22,15.48,1.45,11.77,2.24,24.94,4.39,36.35,7.17,4.36,1.06,10,4.79,14.15,4.29.79-.09,7.75-3.13,8.51-3.65,7.17-4.84,12.36-6.5,20.43-10.17,5.87-2.67,8-.8,11.89-1.77,1.94-.49,1.8-2.49,3.19-3.28,6.45-3.72,13.47-2.98,20.43-3.77,6.54-.73,11.78-3.77,19.44-2.3,3.28.64,6.73,4.31,12.91,4.8,4.47.36,5.86-1.62,6.33-1.6,2.74.15,13.23,3.61,16.29,4.78,1.44.55,2.46,2.15,3.33,2.36,5.17,1.24,16.6-.11,23.06,1.75.72.21.5,1.63.97,1.63,1.14-.03,2.06-1.56,4.01-1.73,2.07-.18,4.16,1.07,5.53.92.48-.06.45-1.35,1.62-1.78.7-.26,10.07-2.24,10.61-2.22,1.74.08,3.47,2.61,6.25,2.2,4.2-.61,2.32-4.04,3.12-5.35,1.63-2.67,10.28,2.41,11.16,1.48,1.02-3.98-4.14-1.36-3.19-5.6,3.88-.68,7.76-5.18,11.23-6.11,3.04-.82,9.65-.26,11.75-3.59,1.36-2.15-2.01-3.07-.88-5.62,1.36-3.04,13.94-10.03,14.94-12.52.55-1.36-4.54-3.11-5.63-3.63,2.74-2.19,1.99-4.96,3.32-7.54.94-1.83,18.9-19.16,20.94-20.15,1.76-.85,10-2.55,11.49-2.03,1.57.55,1.27,3.56,2.92,4.38,1.5.74,3.48.16,5.06.58,10.04,2.68,18.05,12.6,19.04,22.86.22,2.3.41,10.59.1,12.72-.2,1.41-1.73,2.25-1.64,4.03.07,1.3,1.37,2.61,1.6,4.14.84,5.75-.82,5.84,3.28,11.21,6.64,8.71,25.89,15.62,36.64,14.91,8.54-.56,30.32-7.59,35.9-14.07,1.11-1.3,3.32-6.68,3.78-6.87,5.2-2.09,17.57-3.5,23.02-2.22,4.15.98,8.63,4.46,12.82,5.71,10.39,3.1,21.45,1.87,31.63,2.21,8.25.29,17.64,15.13,22.12,21.41.74,1.05.8,2.7,1.71,3.92,6.78,9.1,27.49,12.26,38.53,15.47,8.47,2.47,22.53,8.23,30.43,8.28,1.57.01,2.93.35,4.4.81v-8.05c-6.87-1.47-13.43-3.97-20.11-6.08-9.19-2.9-18.1-5.2-26.88-10.19-3.64-2.07-10.13-6.61-13.08-9.49-3.56-3.48-5.22-7.78-8.41-10.93-2.77-2.74-10.07-5.29-9.76-9.61.12-1.76,1.29-2.09,2.86-2.09,4.88,0,21.06,13.12,26.28,16.51,3.23,2.09,7.36,3.24,10.35,5.76,2.29,1.93,3.34,4.75,5.78,6.31,5.58,3.56,13.03,1.99,19.03,4.34,4.84,1.9,9.46,7.1,13.94,9.83v-4.03c-5-3.62-12.05-8.42-18.2-9.6-8.97-1.71-9.44-2.07-17.43-6.57-8.34-4.71-24.86-14.38-31.32-21.24-1.54-1.63-1.43-3.54-1.57-3.68-.2-.18-2.28.74-3.4.62-3.31-.37-6.73-2.22-9.89-2.29-3.41-.08-8.93,1.89-11.91,1.52-3.89-.5-12.15-5.68-16.52-6.87-3.67-1-27.08-3.35-27.6-4.65-.13-.34-.3-2.1.49-2.03,3.05-.75,7.76.84,10.3.58.37-.03,6.18-2.66,6.44-2.9.89-.83.35-2.46,1.26-3.76.84-1.2,3.97-2.3,5.3-3.57,1.69-1.63,2.73-3.79,4.85-5.62,6.56-5.66,15.48-6.88,19.08-15.57,1.8-4.36,3.42-15.17,7.94-17.12,1.49-.65,2.74.49,3.08.31.17-.08.33-1.51,1.44-2.14,3.23-1.84,8.61-1.42,12.67-4.28,4.96-3.5,9.63-8.17,14.81-11.18,2.64-1.52,6.76-4.13,9.66-4.62,10.33-1.73,22.16,9.23,31.04,5.23,5.42-2.45,5.82-13.88,9.48-18.31v-9.67c-2.66.35-4.43,8.56-4.85,8.86-.84.62-4.36-1.55-4.03-3.22-6.14,1.18-1.25,11.08,2.84,4.83,1.2,5.6-7.17,13.82-12.84,12.89-1.57-.26-2.6-1.76-4.28-2.23-2.67-.75-6.99-1.82-9.71-2.38-4.7-.97-8-1.48-12.49.77-8.66,4.34-18.04,13.87-25.34,17.36-4.98,2.37-9.38,2.5-15.79,5.97-2.69,1.46-6.29,1.16-6.9,6.09-.24,1.89,1.63,2.52,1.39,4.42-.09.71-4.25,9.78-4.83,10.57-2.9,3.92-7.99,4.15-11.12,6.61-7.53,5.91-9.39,13.57-21.61,15.46-18.45,2.85-20.42,1.69-38.11,9.44-4.5,1.98-9.55.93-11.67,5.25-2.13-4.48-3.8.11-5.43,1.09-4.3,2.59-9.68,4.03-14.09,5.99-5.75,2.55-14.61,9.71-21.14,4.56-3.74-2.94-4.4-10.55-6.93-13.21-3.21-3.38-4.44-.7-5.19-7.7-1.18-10.97.29-15.37-5.82-25.61-6.54-10.97-24.39-22.04-37.32-21.58-12.2.43-29.25,16.53-36.21,25.9-4.19,5.65-4.96,12.83-10.59,18.46-1.21,1.21-3.52.04-2.77,3.24-1.57-.19-.71-3.21-1.54-4.36-.54-.76-2.33-.61-2.48-.47-.69.64,1.67,5.41,1.42,6.74-.34,1.78-18.07,13.12-20.75,13.82-3.85,1-6.75-.1-10.5-.42l.81,4.02c-4.75-.6-9.2,1.96-13.3,2.42-2.58.29-11.72.37-13.55-.76-.73-.45-.8-1.98-1.87-2.33-2.39-.78-7.4.15-10.36-.15-5.03-.49-21.36-4.96-26.03-6.99-1.04-.45-.93-1.85-1.49-1.9-1.32-.12-2.97,1.11-4.7.89-1.78-.23-2.22-2.31-4.86-2.53-2.52-.22-5.68,1.5-7.91.91-1.02-.27-.33-3.03-5.02-2.51-1.82.2-2.82,1.54-4.04,1.66-1.17.11-2.43-.77-3.79-.59-5.03.68-10.45,3.88-15.58,3.89-1.51.01-1.04-1.63-1.66-1.71-5.56-.72-11.52,5.31-14.58,6.3-12.87,4.18-26.37,9.69-39.51,12.08-8.12,1.47-19.13,0-26.6-3.61-1.2-.58-1.07-2.21-3.2-2.51-2.31-.32-3.85.67-6.05.51-1.28-.1-14.55-3.75-15.15-4.26l-2.48-4.52c-.64.52-3.61-.5-4.83.43-.85.65-.33,2.66-1.23,2.92-4.87,1.42-7.38-2.49-8.76-2.48-1.42.01-4.92,3.07-7.23,3.12-5.9.14-12.2.92-17.73-.71-18.62,8.44-37.89,19.46-58.89,19.99-1.44.04-11.18-.73-11.68-1.04-.82-.51-1.22-2.62-2.06-2.82-.59-.14-2.38,1.7-4.73,1.65-3.46-.07-20.54-3.19-24.05-4.27-2.18-.67-3.37-2.68-4.4-2.94-1.54-.4-2.51,1.48-4.53,1.5-12.95.11-32.22-9.3-44.7-11.89-1.56-.32-2.73.58-4.22.29-3.83-.75-8.23-6.99-11.5-8.67-4.23-2.17-20.07-6.79-23.15-9.11-.76-.58-.55-2.01-1.36-2.86-6.37-6.7-27.94-18.18-36.89-24.14-6.25-4.17-12.11-9.02-18.61-12.85l-3.24-1.69c-22.2-10.31-29.61-36.7-44.69-54.29-20.81-24.27-58.84-39.73-85.35-58.09-8.74-6.06-17.16-13.01-25.44-19.69-4.22-3.41-11.31-10.75-16.34-14.8l-32.24-28.72-.85-.76c-.1-.08-.2-.17-.29-.25h0c-8.21-7.35-17.87-15.2-24.47-20.67-11.33-9.39-23.37-17.8-35.57-25.67-1.87-1.21-13.46-7.61-13.87-8.3l-2.94-1.49-.58-.41-6.26-4.43c-4.15-.49-5.45-2.72-8.85-4.45-9.39-4.76-20.16-11.43-29.05-15.28-2.76-1.2-5.57-2.29-8.41-3.32h-.02c-1.03-.39-2.07-.76-3.11-1.12l-1.39-2.22-1.43-1.01-1.01-2.32.41-1.51v-3.23l.8-1.72,3.67-4.4,21.01-19.27,16.92-16.48,20.05-19.55,25.03-28.04,27.06-27.87,41.67-55.83,21.08-34.25,3.73-9.87,14.19-25.81L923.28,0H0v1080h134.62v-6.3l-3.44-8.35-3.01-17.14-7.43-8.78-9.69-4.39-2.26-12.9v-58.24l11.86-20.7,16.84-14.87,18.73-5.87,18.57-12.73,21.7-12.21,58.18-20.47,9.46-3.04,16.43-5.29,24.45-11.57,14.61-3.21,20.33-10.41,9.74-8.97,7.92-6.38,15.14-.23,18.19-4.19,7.47,1.96,13.64-1.96,22.66-2.9,21.54-14.29,7.36-.49,12.24.27,16.8,14.96v35.54l17.61,15.03,13.02,21.3,8.28,8.87,8.65,5.19,9.31,14.05,18.19,19.34,6.03,16.95,12.69,24.51,16.62,38.93,6.12,25.3,3.43,33.68h179.72l-11.01-10.6-19.9-19.59-16.83-14.77-11.02-23.18-9.96-21.78v-14.94l-10.09-28.66-16.99-6.84-19.27-25.01-21.42-36.04-10.44-22.47s-27.17-15.15-36.05-30.3c-8.88-15.15-5.75-19.85-5.75-19.85l-2.61-24.03-19.33-30.3-26.55-48.2-16.81-9.79-8.88-18.28,2.13-13.8,17.24-26.22,30.15-51.28,3.24-5.87,8.11-8.71,4.05-6.02,8.03-16.61,28.4-28.14,13.06-27.49,16.61-27.44,10.55-25.84,12.02-31.63,5.74-39.16,7.98-10.75,26.88-17.73c2.28,1.2,4.59,3.51,6.92,4.36,1.84.67,4.24.31,5.43,1.02.7.42,1.03,1.99,2.13,2.71,4.06,2.67,17.41,10.02,21.7,10.54,3.88.48-.09-4.03,5.16-1.94,6.95,2.76,23.58,21.12,30.25,26.92,2.63,2.3,6.28,4.45,8.77,6.61,3.21,2.79,21.51,19.82,23.49,20.01.81.08,1.84-.18,2.42-.8.51-.01-.91,2.02.31,3.65.24.31,3.91,3.36,6.58,5.5l.76.62,24.37,20.07c21.03,18.42,41.38,35.24,65.63,49.76,18.53,11.08,54.18,27.44,65.08,46.12,4.47,7.66,5.6,19.63,12.24,26.44,3.73,3.82,16.25,14.99,20.53,17.34,2.65,1.46,6.4,2.66,9.88,4.62,1.03.59,4.27,1.27,4.47,1.58.59.94-.26,4.36.1,4.73.23.23,4.7-.18,6.49.36,1.53.46,7.84,4.3,9.88,5.44,38.65,21.5,59.99,47.25,105.57,56.4,4.01.81,19.58,11.68,21.89,15.22.49.75.38,2.24.46,2.33.15.14,3.88-.67,4.03-.82.43-.44-1.54-2.7-.4-3.23,1.87,1.02,5.67.54,7.13,1.55,1.46,1.02.61,6.03,6.16,3.29.77-2.01-1.52-1.43-1.65-2.08-.86-4.45,3.88-4.62,7.14-3.81,15.68,3.92,17.6,30.15,21.34,43.13,2.95,10.27,7.77,22.72,10.63,33.99l.07.28,3.25,12.36,1.07,4.37,1.74,5.23,3,6.11,3.77,6.73.04.06.18.32,3.03,5.28c.67.62,2.63,4.34,4.18,6.5v.02s2.84,6.58,2.84,6.58l2.16,5.11,7.16,11.45,9.14,10.48,7.59,7.59,9.88,6.5,9.81,8.18,19.06,4.97,6.21,2.38,5.37,1.94,15.8,3.35,27.88,2.54h5.52l17.99-1.94,14.38-2.06,7.92.19,7.73,1.36,5.9,2.84,9.07,4.36,6.34,3.04,6.09,5.15,8.02,4.58,10.37,7.23,12.31,3.93,6.47,3.35,3.48,1.27,4.61,1.68,10.87,3.11h7.21l4.5,1.98,6.29,1.13,7.4.62,21-1.18,8.48-2.01,10.33-2.24,5.35-1.15,6.2-1.33,11.81-5.08,5.94-.31,5.59.78,9.69-1.92,8.04-.6,12.25,3.47,5.27,2.95,3.38,3.12,8.49,2.5,6.81,3,9.56,4.37,13.83,1.87h11.84l3.9-2.04,3.72-2.05,6.2-3.14,7.14-1.76,12.67.26,9.55.3,4.8,2.21,3.28,2.94,4.01,6.13,2.68,7.31,2.88,9.07,1.03,8.63,3.9,7,1.26,2.89,2.27,2.19,3.61,9.31,1.04,4.81,4.69,4.51,5.65,5.59,4.88,4.02,5.19,3.91,8.75,4.03,5.95,1.71,4.5,5.31,4.81,2.23h3.69l3.5-2.79,4.12.83,4.64.93h3.53l5.43-.28,8.64,1.31,9.33,2.31,3.35,1.67,8.73,4.27,3.63,2.05,2.06.6,6.16,2.74,6.91,1.49,5.57,2.23,1.51.34,5.43,2.14,6.09,1.65,1.27.82v-15.55l-28.11-7.01-14.16-3.67-11.2-1.19-7.29-2.23-14.01-1.56-8.26-2.23-9.24-.48-4.74-3.06-1.94.36-5.57-4.93-5.32-2.85-3.06-1.64-9.46-5.07-9.98-8.79-1.6-4.17-.38-3.77-4.43-7.21.1-6.15,1.32-4.22-4.62-12.81-2.48-7.15s-.36-4.15-.9-4.15-3.13-1-3.13-1l-6.62-6.24-6.75-4.49-9.4-5.04-6.86-1.99h-6.04l-5.12.28-11.48,4.04h-8.12l-2.89,1.99-3.26,1.55-4.99.56-9.81-1.93-11.55-4.08-5.4-1.7-3.61-2.16-1.16-2.67-3.17-.58-7.57-1.29-2.18-4.67-2.74-1.87-6.18-1.92-22.64-.15-9.88-.08-7.24.99-5.28-.03-10.59,2.95-8.17.65-3.29,2.41-10.64,4.35-9.79,2.47-14.41,1.76-7.61.34-11.29.41-6.68-1.09-3.61-1.26-26.32-13.4-10.31-4.47-6.92-7.41-3.88-3.06-10.2-1.38-4.38-.65-8.61-4.52-4.84-1.83-27.76-3.34-8.75.71-7.31-.35-5.24,1.26-10.64,3.43-8.31-.54-9.38-2.89-13.11-.88-10.12-2.84-15.26-6.65-9.84-4.77-10.33-6.2-17.39-14.47-8.05-8.76-2.59-7.24-8.03-13.21-1.49-1.78ZM1748.88,635.81c-11.2,5.43-26.94,13.22-39.7,11.59-1.42-.18-1.12-1.41-1.79-1.6-1.85-.53-3.9-.74-5.82-.89l11.45-1.83c12.29-4.16,24.17-11.19,36.93-13.11,1.93,1.37.1,4.41-1.07,5.84Z"/>
      <polygon points="203.66 1080 215.61 1070.76 219.08 1064.75 217.29 1056.52 212.24 1054.43 207.89 1048.05 207.26 1045.27 211.37 1037.21 224.94 1035.04 239.21 1035.04 245.99 1039.29 254.98 1030.18 264.09 1026.77 266.7 1025.72 282.18 1018.59 295.58 1018.59 300.27 1018.59 323.11 1007.98 336.11 1002.76 348.89 992.5 361.17 992.5 379.78 992.5 388.65 993.71 398.22 996.32 408.11 1001.99 417.71 1003.22 434.76 1001.89 440.32 999.8 450.76 999.98 457.12 1001.86 464.38 1008.2 472.51 1014.38 476.81 1021.26 476.81 1030.42 478.94 1039.06 483.64 1044.34 487.29 1046.09 494.57 1053.06 503.3 1066.61 510.07 1072.73 515.31 1080 354.21 1080 346.73 1060.35 327.94 1052.34 323.41 1047.82 312.29 1040.18 301.32 1044.34 297.66 1053.56 294.53 1066.09 285.63 1070.24 282.18 1076.42 280.54 1080 203.66 1080"/>
    </g>
  </g>
  <g id="Institutional_Dots" data-name="Institutional Dots">
    <g>
      <circle class="cls-4" cx="1597.54" cy="532.28" r="2.26"/>
      <circle class="cls-1" cx="1597.54" cy="532.28" r="6.14"/>
    </g>
    <g>
      <circle class="cls-4" cx="1602.39" cy="569.15" r="2.26"/>
      <circle class="cls-1" cx="1602.39" cy="569.15" r="6.14"/>
    </g>
    <g>
      <circle class="cls-4" cx="1600.43" cy="580.01" r="2.26"/>
      <circle class="cls-1" cx="1600.43" cy="580.01" r="6.14"/>
    </g>
    <g>
      <circle class="cls-4" cx="1586.27" cy="606.98" r="2.26"/>
      <circle class="cls-1" cx="1586.27" cy="606.98" r="6.14"/>
    </g>
    <g>
      <circle class="cls-4" cx="505.22" cy="388.29" r="2.26"/>
      <circle class="cls-1" cx="505.22" cy="388.29" r="6.14"/>
    </g>
    <g>
      <circle class="cls-4" cx="416.98" cy="482.71" r="2.26"/>
      <circle class="cls-1" cx="416.98" cy="482.71" r="6.14"/>
    </g>
  </g>
  <g id="Tangible_Dots" data-name="Tangible Dots">
    <g>
      <circle class="cls-4" cx="1523.7" cy="604.94" r="2.26"/>
      <circle class="cls-1" cx="1523.7" cy="604.94" r="6.14"/>
    </g>
    <g>
      <circle class="cls-4" cx="1525.96" cy="613.11" r="2.26"/>
      <circle class="cls-1" cx="1525.96" cy="613.11" r="6.14"/>
    </g>
    <g>
      <circle class="cls-4" cx="1552.07" cy="622.5" r="2.26"/>
      <circle class="cls-1" cx="1552.07" cy="622.5" r="6.14"/>
    </g>
    <g>
      <circle class="cls-4" cx="1546.27" cy="630.27" r="2.26"/>
      <circle class="cls-1" cx="1546.27" cy="630.27" r="6.14"/>
    </g>
    <g>
      <circle class="cls-4" cx="1602.39" cy="574.97" r="2.26"/>
      <circle class="cls-1" cx="1602.39" cy="574.97" r="6.14"/>
    </g>
    <g>
      <circle class="cls-4" cx="1610.64" cy="582.53" r="2.26"/>
      <circle class="cls-1" cx="1610.64" cy="582.53" r="6.14"/>
    </g>
  </g>
  <g id="Intangible_Dots" data-name="Intangible Dots">
    <g>
      <circle class="cls-4" cx="1598.71" cy="631.57" r="2.26"/>
      <circle class="cls-1" cx="1598.71" cy="631.57" r="6.14"/>
    </g>
    <g>
      <circle class="cls-4" cx="1604.24" cy="627.74" r="2.26"/>
      <circle class="cls-1" cx="1604.24" cy="627.74" r="6.14"/>
    </g>
    <g>
      <circle class="cls-4" cx="1626.66" cy="681.66" r="2.26"/>
      <circle class="cls-1" cx="1626.66" cy="681.66" r="6.14"/>
    </g>
  </g>
  <g id="Mental_Dots" data-name="Mental Dots">
    <path class="cls-4" d="M1661.78,639.67l-2.35-3.58s-.04-.06-.07-.09l-6.2-7.89c-.08-.1-.18-.2-.29-.27l-15.59-10.81c-.83-.58-1.98-.05-2.09.96l-1.5,13.85-1.86,11.83c-.14.92.67,1.7,1.58,1.52l7.86-1.52c.08-.01.15-.02.23-.02l14.68-.25c.15,0,.3-.03.44-.08l4.51-1.65c.81-.3,1.13-1.27.66-1.99Z"/>
    <g>
      <circle class="cls-4" cx="1544.4" cy="629.19" r="2.26"/>
      <circle class="cls-1" cx="1544.4" cy="629.19" r="6.14"/>
    </g>
    <g>
      <circle class="cls-4" cx="1588.5" cy="560" r="2.26"/>
      <circle class="cls-1" cx="1588.5" cy="560" r="6.14"/>
    </g>
  </g>
</svg>